<svg height="480pt" viewBox="0 0 480 480" width="480pt" xmlns="http://www.w3.org/2000/svg"><path d="m472 240c0 128.128906-103.871094 232-232 232s-232-103.871094-232-232 103.871094-232 232-232 232 103.871094 232 232zm0 0" fill="#aa6100"/><path d="m128 256h96v96h-96zm0 0" fill="#787680"/><path d="m160 288h32v32h-32zm0 0" fill="#cd2a00"/><path d="m128 128h96v96h-96zm0 0" fill="#787680"/><path d="m160 160h32v32h-32zm0 0" fill="#cd2a00"/><path d="m256 256h96v96h-96zm0 0" fill="#787680"/><path d="m256 128h96v96h-96zm0 0" fill="#787680"/><path d="m288 160h32v32h-32zm0 0" fill="#ffe477"/><path d="m256 304h48v48h-48zm0 0" fill="#1e81ce"/><g fill="#231f20"><path d="m240 0c-132.546875 0-240 107.453125-240 240s107.453125 240 240 240 240-107.453125 240-240c-.148438-132.484375-107.515625-239.851562-240-240zm0 464c-123.710938 0-224-100.289062-224-224s100.289062-224 224-224 224 100.289062 224 224c-.140625 123.652344-100.347656 223.859375-224 224zm0 0"/><path d="m224 120h-96c-4.417969 0-8 3.582031-8 8v96c0 4.417969 3.582031 8 8 8h96c4.417969 0 8-3.582031 8-8v-96c0-4.417969-3.582031-8-8-8zm-8 96h-80v-80h80zm0 0"/><path d="m160 200h32c4.417969 0 8-3.582031 8-8v-32c0-4.417969-3.582031-8-8-8h-32c-4.417969 0-8 3.582031-8 8v32c0 4.417969 3.582031 8 8 8zm8-32h16v16h-16zm0 0"/><path d="m224 248h-96c-4.417969 0-8 3.582031-8 8v96c0 4.417969 3.582031 8 8 8h96c4.417969 0 8-3.582031 8-8v-96c0-4.417969-3.582031-8-8-8zm-8 96h-80v-80h80zm0 0"/><path d="m160 328h32c4.417969 0 8-3.582031 8-8v-32c0-4.417969-3.582031-8-8-8h-32c-4.417969 0-8 3.582031-8 8v32c0 4.417969 3.582031 8 8 8zm8-32h16v16h-16zm0 0"/><path d="m352 120h-96c-4.417969 0-8 3.582031-8 8v64h16v-56h80v80h-80v-8h-16v16c0 4.417969 3.582031 8 8 8h96c4.417969 0 8-3.582031 8-8v-96c0-4.417969-3.582031-8-8-8zm0 0"/><path d="m320 200c4.417969 0 8-3.582031 8-8v-32c0-4.417969-3.582031-8-8-8h-32c-4.417969 0-8 3.582031-8 8v32c0 4.417969 3.582031 8 8 8zm-24-32h16v16h-16zm0 0"/><path d="m264 264h24v-16h-32c-4.417969 0-8 3.582031-8 8v32h16zm0 0"/><path d="m304 296h-48c-4.417969 0-8 3.582031-8 8v48c0 4.417969 3.582031 8 8 8h48c4.417969 0 8-3.582031 8-8v-48c0-4.417969-3.582031-8-8-8zm-8 48h-32v-32h32zm0 0"/><path d="m352 248h-48v16h40v16h16v-24c0-4.417969-3.582031-8-8-8zm0 0"/><path d="m352 288h-24v16h16v40h-24v16h32c4.417969 0 8-3.582031 8-8v-56c0-4.417969-3.582031-8-8-8zm0 0"/><path d="m280 272h40v16h-40zm0 0"/></g></svg>